<svg id="Layer_1" data-name="Layer 1" xmlns="http://www.w3.org/2000/svg" viewBox="0 0 325.067 194.639"><defs><style>.cls-1{fill:#000;}.cls-2{fill:#fc8b18;}</style></defs><title>logo-white</title><path class="cls-1" d="M669.978,530.335c.02.75.056,1.5.056,2.25,0,46.563-36.668,84.31-81.9,84.31a79.783,79.783,0,0,1-42.847-12.455,122.675,122.675,0,0,1-34.993-26.95c-5.487,11.7-11.959,18.951-19.515,25.761-11.45,10.669-31.246,19.343-50.915,19.343-37.181,0-65.574-29.491-65.89-63.437-.123-13.161,2.874-25.73,9.062-36.21,18.155-36,64.961-61.752,122.355-68.132-40.795-1.337-77.67,6.9-104.295,22.249-44.743,19.5-66.639,70.448-48.973,115.535,18.092,46.173,70.812,68.694,117.752,50.3a91.8,91.8,0,0,0,47.008-41.07c15.986,19.791,40.081,32.49,67.039,32.4,52.315-.183,87.151-40.166,87.151-89.714A92.867,92.867,0,0,0,669.978,530.335Z" transform="translate(-346.005 -454.674)"/><path class="cls-2" d="M606,461.986v-.2c-1.3-.276-2.63-.543-3.949-.813-.7-.157-1.4-.3-2.1-.433-15.04-3.007-30.968-5.359-47.42-4.28-77.93,5.111-137.056,29.417-157.989,68.684a56.367,56.367,0,0,0-7.766,24.9c-.075.661-.184,1.312-.241,1.979l.145-.026c-.026.706-.1,1.4-.1,2.111,0,30.735,24.2,55.651,54.06,55.651a52.738,52.738,0,0,0,32.015-10.881c12-6.907,24.038-20.561,32.364-38.365.559-1.194,1.067-2.388,1.575-3.582,13.426,15.183,28.51,26.689,43.361,33.7a67.386,67.386,0,0,0,37.3,11.254c38.192,0,69.152-31.871,69.152-71.186C656.4,497.88,635.072,470.4,606,461.986ZM540.837,495.5l22.543.009.016,9.208-13.346,0,0,8.853-9.209-.047Zm.028,62.669-.008-18.4,9.208.048,0,9.147,13.407,0,.016,9.209Zm58.078-62.646,22.626.008.008,18.4-9.208-.047,0-9.147-13.406,0Zm.11,62.668-.016-9.208,13.346,0,0-8.854,9.209.047L621.6,558.2Z" transform="translate(-346.005 -454.674)"/></svg>
